<svg width="15" height="15" viewBox="0 0 15 15" fill="none" xmlns="http://www.w3.org/2000/svg">
<path d="M10 0.75H2C1.30964 0.75 0.75 1.30964 0.75 2V10C0.75 10.6904 1.30964 11.25 2 11.25H10C10.6904 11.25 11.25 10.6904 11.25 10V2C11.25 1.30964 10.6904 0.75 10 0.75Z" stroke="currentColor" stroke-width="1.2"/>
<path d="M13 3.75H5C4.30964 3.75 3.75 4.30964 3.75 5V13C3.75 13.6904 4.30964 14.25 5 14.25H13C13.6904 14.25 14.25 13.6904 14.25 13V5C14.25 4.30964 13.6904 3.75 13 3.75Z" stroke="currentColor" stroke-width="1.2"/>
</svg>
