<svg width="15" height="17" viewBox="0 0 15 17" fill="none" xmlns="http://www.w3.org/2000/svg">
<path d="M13.5177 8.78456C13.258 8.78456 13.0576 8.99994 13.0576 9.26148C13.0576 10.0384 12.9092 10.7923 12.6199 11.5077C12.0559 12.8923 10.9949 13.9923 9.65925 14.5769C8.9766 14.8769 8.24201 15.0308 7.49258 15.0308C6.74315 15.0308 6.01598 14.8769 5.32591 14.5769C3.9903 13.9923 2.92922 12.8923 2.3653 11.5077C2.07591 10.8 1.92751 10.0384 1.92751 9.26148C1.92751 8.48455 2.07591 7.7307 2.3653 7.01531C2.92922 5.63068 3.9903 4.53068 5.32591 3.94606C6.00856 3.64605 6.74315 3.49221 7.49258 3.49221C7.78196 3.49221 8.06393 3.51528 8.35331 3.56144L7.5371 3.89221C7.29966 3.99221 7.18094 4.26914 7.26998 4.51529C7.35902 4.76145 7.63356 4.88453 7.87101 4.79222L9.85959 3.99221C10.097 3.89221 10.2158 3.61528 10.1267 3.36913L9.34018 1.30757C9.24372 1.06142 8.9766 0.938339 8.73916 1.03065C8.50171 1.13065 8.38299 1.40757 8.47203 1.65373L8.85788 2.68451C8.40525 2.58451 7.94521 2.53066 7.48516 2.53066C6.60959 2.53066 5.75628 2.70758 4.95491 3.06143C3.39669 3.74605 2.15753 5.03068 1.49715 6.64608C1.17066 7.47685 1 8.35378 1 9.26148C1 10.1692 1.17066 11.0538 1.51199 11.8846C2.17237 13.5 3.41153 14.7846 4.96975 15.4692C5.77112 15.8231 6.62443 16 7.5 16C8.37557 16 9.22888 15.8231 10.0303 15.4692C11.5885 14.7846 12.8276 13.5 13.488 11.8846C13.8293 11.0538 14 10.1692 14 9.26148C13.9852 8.99994 13.7774 8.78456 13.5177 8.78456C13.5251 8.78456 13.5251 8.78456 13.5177 8.78456Z" fill="currentColor"/>
<path d="M13.5177 8.78456C13.258 8.78456 13.0576 8.99994 13.0576 9.26148C13.0576 10.0384 12.9092 10.7923 12.6199 11.5077C12.0559 12.8923 10.9949 13.9923 9.65925 14.5769C8.9766 14.8769 8.24201 15.0308 7.49258 15.0308C6.74315 15.0308 6.01598 14.8769 5.32591 14.5769C3.9903 13.9923 2.92922 12.8923 2.3653 11.5077C2.07591 10.8 1.92751 10.0384 1.92751 9.26148C1.92751 8.48455 2.07591 7.7307 2.3653 7.01531C2.92922 5.63068 3.9903 4.53068 5.32591 3.94606C6.00856 3.64605 6.74315 3.49221 7.49258 3.49221C7.78196 3.49221 8.06393 3.51528 8.35331 3.56144L7.5371 3.89221C7.29966 3.99221 7.18094 4.26914 7.26998 4.51529C7.35902 4.76145 7.63356 4.88453 7.87101 4.79222L9.85959 3.99221C10.097 3.89221 10.2158 3.61528 10.1267 3.36913L9.34018 1.30757C9.24372 1.06142 8.9766 0.938339 8.73916 1.03065C8.50171 1.13065 8.38299 1.40757 8.47203 1.65373L8.85788 2.68451C8.40525 2.58451 7.94521 2.53066 7.48516 2.53066C6.60959 2.53066 5.75628 2.70758 4.95491 3.06143C3.39669 3.74605 2.15753 5.03068 1.49715 6.64608C1.17066 7.47685 1 8.35378 1 9.26148C1 10.1692 1.17066 11.0538 1.51199 11.8846C2.17237 13.5 3.41153 14.7846 4.96975 15.4692C5.77112 15.8231 6.62443 16 7.5 16C8.37557 16 9.22888 15.8231 10.0303 15.4692C11.5885 14.7846 12.8276 13.5 13.488 11.8846C13.8293 11.0538 14 10.1692 14 9.26148C13.9852 8.99994 13.7774 8.78456 13.5177 8.78456C13.5251 8.78456 13.5251 8.78456 13.5177 8.78456Z" fill="black" fill-opacity="0.2"/>
<path d="M13.5177 8.78456C13.258 8.78456 13.0576 8.99994 13.0576 9.26148C13.0576 10.0384 12.9092 10.7923 12.6199 11.5077C12.0559 12.8923 10.9949 13.9923 9.65925 14.5769C8.9766 14.8769 8.24201 15.0308 7.49258 15.0308C6.74315 15.0308 6.01598 14.8769 5.32591 14.5769C3.9903 13.9923 2.92922 12.8923 2.3653 11.5077C2.07591 10.8 1.92751 10.0384 1.92751 9.26148C1.92751 8.48455 2.07591 7.7307 2.3653 7.01531C2.92922 5.63069 3.9903 4.53068 5.32591 3.94606C6.00856 3.64605 6.74315 3.49221 7.49258 3.49221C7.78196 3.49221 8.06393 3.51528 8.35331 3.56144L7.5371 3.89221C7.29966 3.99221 7.18094 4.26914 7.26998 4.51529C7.35902 4.76145 7.63356 4.88453 7.871 4.79222L9.85959 3.99221C10.097 3.89221 10.2158 3.61528 10.1267 3.36913L9.34018 1.30757C9.24372 1.06142 8.9766 0.938339 8.73916 1.03065C8.50171 1.13065 8.38299 1.40757 8.47203 1.65373L8.85788 2.68451C8.40525 2.58451 7.94521 2.53066 7.48516 2.53066C6.60959 2.53066 5.75628 2.70758 4.95491 3.06143C3.39669 3.74605 2.15753 5.03068 1.49715 6.64608C1.17066 7.47685 1 8.35378 1 9.26148C1 10.1692 1.17066 11.0538 1.51199 11.8846C2.17237 13.5 3.41153 14.7846 4.96975 15.4692C5.77112 15.8231 6.62443 16 7.5 16C8.37557 16 9.22888 15.8231 10.0303 15.4692C11.5885 14.7846 12.8276 13.5 13.488 11.8846C13.8293 11.0538 14 10.1692 14 9.26148C13.9852 8.99994 13.7774 8.78456 13.5177 8.78456ZM13.5177 8.78456C13.5251 8.78456 13.5251 8.78456 13.5177 8.78456Z" stroke="currentColor" stroke-width="0.3"/>
</svg>
