<svg width="60" height="22" viewBox="0 0 60 22" fill="none" xmlns="http://www.w3.org/2000/svg">
<path d="M54 1.41669H6C2.96243 1.41669 0.5 3.46872 0.5 6.00002V16C0.5 18.5313 2.96243 20.5834 6 20.5834H54C57.0376 20.5834 59.5 18.5313 59.5 16V6.00002C59.5 3.46872 57.0376 1.41669 54 1.41669Z" stroke="#CFCFCF"/>
<path d="M26.518 12.407C26.518 12.221 26.443 12.047 26.293 11.885C26.143 11.723 25.954 11.576 25.726 11.444C25.504 11.306 25.201 11.138 24.817 10.94C24.361 10.7 23.995 10.496 23.719 10.328C23.443 10.154 23.206 9.95 23.008 9.716C22.816 9.482 22.72 9.224 22.72 8.942C22.72 8.642 22.846 8.321 23.098 7.979C23.35 7.631 23.656 7.34 24.016 7.106C24.382 6.866 24.718 6.746 25.024 6.746C25.396 6.746 25.828 6.791 26.32 6.881C26.812 6.971 27.172 7.067 27.4 7.169V8.915H27.058C26.764 8.429 26.44 8.051 26.086 7.781C25.738 7.511 25.372 7.376 24.988 7.376C24.646 7.376 24.373 7.484 24.169 7.7C23.971 7.91 23.872 8.186 23.872 8.528C23.872 8.726 23.947 8.912 24.097 9.086C24.253 9.254 24.442 9.404 24.664 9.536C24.892 9.668 25.207 9.839 25.609 10.049C26.053 10.271 26.413 10.469 26.689 10.643C26.965 10.811 27.196 11.009 27.382 11.237C27.574 11.459 27.67 11.711 27.67 11.993C27.67 12.293 27.535 12.617 27.265 12.965C26.995 13.307 26.665 13.598 26.275 13.838C25.891 14.072 25.54 14.189 25.222 14.189C24.832 14.189 24.367 14.144 23.827 14.054C23.293 13.964 22.909 13.868 22.675 13.766V12.02H23.017C23.323 12.506 23.671 12.884 24.061 13.154C24.451 13.424 24.853 13.559 25.267 13.559C25.513 13.559 25.732 13.505 25.924 13.397C26.116 13.289 26.263 13.148 26.365 12.974C26.467 12.794 26.518 12.605 26.518 12.407ZM34.0888 14H32.3788V10.967C32.3788 10.637 32.3278 10.406 32.2258 10.274C32.1238 10.142 31.9408 10.076 31.6768 10.076C31.4788 10.076 31.2808 10.112 31.0828 10.184C30.8908 10.256 30.6628 10.394 30.3988 10.598V13.325L31.2088 13.64L31.0288 14H28.5178V13.721L29.3188 13.091V7.556L28.5178 6.998V6.719L30.0568 6.143H30.3988V10.175L31.6318 9.203C31.7578 9.155 31.9228 9.131 32.1268 9.131C32.5348 9.131 32.8588 9.257 33.0988 9.509C33.3388 9.755 33.4588 10.091 33.4588 10.517V13.325L34.2688 13.64L34.0888 14ZM39.5807 14H37.8707V13.217L36.8537 14.018C36.7337 14.066 36.5837 14.09 36.4037 14.09C35.8877 14.09 35.5127 13.961 35.2787 13.703C35.0507 13.445 34.9367 13.136 34.9367 12.776C34.9367 12.56 35.0147 12.347 35.1707 12.137C35.3267 11.927 35.5487 11.729 35.8367 11.543H37.8707V10.967C37.8707 10.577 37.7657 10.301 37.5557 10.139C37.3517 9.977 37.0697 9.896 36.7097 9.896C36.3377 9.896 35.8817 10.121 35.3417 10.571L35.0717 10.229L36.3677 9.203C36.6077 9.155 36.8957 9.131 37.2317 9.131C37.7777 9.131 38.2007 9.266 38.5007 9.536C38.8007 9.8 38.9507 10.187 38.9507 10.697V13.325L39.7607 13.64L39.5807 14ZM36.6917 13.325C37.0577 13.325 37.4507 13.157 37.8707 12.821V11.912H36.2777C36.1997 12.008 36.1427 12.104 36.1067 12.2C36.0767 12.296 36.0617 12.401 36.0617 12.515C36.0617 12.737 36.1187 12.929 36.2327 13.091C36.3467 13.247 36.4997 13.325 36.6917 13.325ZM43.6316 9.14C43.8296 9.14 44.0036 9.194 44.1536 9.302C44.3036 9.41 44.4206 9.56 44.5046 9.752L43.9106 10.499H43.5686C43.5446 10.349 43.4996 10.244 43.4336 10.184C43.3736 10.118 43.2896 10.085 43.1816 10.085C43.0496 10.085 42.9086 10.121 42.7586 10.193C42.6146 10.259 42.4496 10.388 42.2636 10.58V13.262L43.5236 13.649L43.3436 14.009H40.3826V13.73L41.1836 13.1V10.553L40.3826 10.085V9.806L41.9216 9.05L42.2006 10.157L43.1366 9.203C43.2626 9.155 43.4276 9.131 43.6316 9.131V9.14ZM48.0196 14.018C47.7796 14.066 47.4916 14.09 47.1556 14.09C46.7596 14.09 46.4026 13.988 46.0846 13.784C45.7726 13.574 45.5266 13.292 45.3466 12.938C45.1726 12.584 45.0856 12.194 45.0856 11.768C45.0856 11.306 45.2266 10.874 45.5086 10.472C45.7906 10.064 46.1416 9.74 46.5616 9.5C46.9876 9.254 47.3986 9.131 47.7946 9.131C48.3646 9.131 48.8056 9.356 49.1176 9.806C49.4356 10.256 49.5946 10.85 49.5946 11.588H46.2646C46.3006 12.098 46.4386 12.515 46.6786 12.839C46.9246 13.163 47.2576 13.325 47.6776 13.325C48.0676 13.325 48.6226 13.022 49.3426 12.416L49.6126 12.758L48.0196 14.018ZM47.2726 9.887C46.6246 9.887 46.2856 10.331 46.2556 11.219H48.3616C48.3076 10.895 48.2506 10.649 48.1906 10.481C48.1366 10.307 48.0376 10.166 47.8936 10.058C47.7556 9.944 47.5486 9.887 47.2726 9.887Z" fill="#848484"/>
<path d="M9.25 10.616L8.75 9.75L12.25 7.75L12.75 8.61603L9.25 10.616Z" fill="#C7C7C7"/>
<path d="M9.25 11.2501L8.72217 12.1441L12.25 13.75L12.7778 12.856L9.25 11.2501Z" fill="#C7C7C7"/>
<path d="M7.75 11.75C8.30228 11.75 8.75 11.3023 8.75 10.75C8.75 10.1977 8.30228 9.75 7.75 9.75C7.19772 9.75 6.75 10.1977 6.75 10.75C6.75 11.3023 7.19772 11.75 7.75 11.75Z" fill="white"/>
<path d="M7.75 12.5C8.7165 12.5 9.5 11.7165 9.5 10.75C9.5 9.7835 8.7165 9 7.75 9C6.7835 9 6 9.7835 6 10.75C6 11.7165 6.7835 12.5 7.75 12.5Z" stroke="#C7C7C7" stroke-width="1.2"/>
<path d="M13.75 9.5C14.7165 9.5 15.5 8.7165 15.5 7.75C15.5 6.7835 14.7165 6 13.75 6C12.7835 6 12 6.7835 12 7.75C12 8.7165 12.7835 9.5 13.75 9.5Z" stroke="#C7C7C7" stroke-width="1.2"/>
<path d="M13.75 15.5C14.7165 15.5 15.5 14.7165 15.5 13.75C15.5 12.7835 14.7165 12 13.75 12C12.7835 12 12 12.7835 12 13.75C12 14.7165 12.7835 15.5 13.75 15.5Z" stroke="#C7C7C7" stroke-width="1.2"/>
</svg>
