<svg width="16" height="16" viewBox="0 0 12 12" fill="none" xmlns="http://www.w3.org/2000/svg">
<path d="M4.25 5.61603L3.75 4.75L7.25 2.75L7.75 3.61603L4.25 5.61603Z" fill="currentColor"/>
<path d="M4.25 6.25006L3.72217 7.14407L7.25 8.75L7.77783 7.85602L4.25 6.25006Z" fill="currentColor"/>
<path d="M2.75 6.75C3.30228 6.75 3.75 6.30228 3.75 5.75C3.75 5.19772 3.30228 4.75 2.75 4.75C2.19772 4.75 1.75 5.19772 1.75 5.75C1.75 6.30228 2.19772 6.75 2.75 6.75Z" fill="white"/>
<path d="M2.75 7.5C3.7165 7.5 4.5 6.7165 4.5 5.75C4.5 4.7835 3.7165 4 2.75 4C1.7835 4 1 4.7835 1 5.75C1 6.7165 1.7835 7.5 2.75 7.5Z" stroke="currentColor" stroke-width="1.2"/>
<path d="M8.75 4.5C9.7165 4.5 10.5 3.7165 10.5 2.75C10.5 1.7835 9.7165 1 8.75 1C7.7835 1 7 1.7835 7 2.75C7 3.7165 7.7835 4.5 8.75 4.5Z" stroke="currentColor" stroke-width="1.2"/>
<path d="M8.75 10.5C9.7165 10.5 10.5 9.7165 10.5 8.75C10.5 7.7835 9.7165 7 8.75 7C7.7835 7 7 7.7835 7 8.75C7 9.7165 7.7835 10.5 8.75 10.5Z" stroke="currentColor" stroke-width="1.2"/>
</svg>
