<svg width="15" height="15" viewBox="0 0 15 15" fill="none" xmlns="http://www.w3.org/2000/svg">
<g clip-path="url(#clip0_356_162)">
<g clip-path="url(#clip1_356_162)">
<path d="M0.00838986 5.99609C0.861632 1.94249 4.89747 -0.678949 9.03569 0.150197C12.0306 0.753212 14.377 3.05639 14.9913 5.99609C15.0511 6.28085 14.8633 6.55723 14.5732 6.61586C14.2831 6.67448 14.0016 6.49023 13.9418 6.20547C13.208 2.71301 9.73535 0.46008 6.17733 1.17197C3.94184 1.62423 2.09883 3.18202 1.31385 5.29258L2.49132 4.90732C2.77289 4.81519 3.07153 4.96594 3.16539 5.24232C3.25924 5.51871 3.10566 5.81184 2.83262 5.90397L0.699516 6.59911C0.417946 6.69124 0.119311 6.54048 0.0254547 6.2641C-0.000142562 6.18035 -0.00867498 6.08822 0.00838986 5.99609ZM7.64491 4.18705C7.85822 4.18705 8.04593 4.31268 8.13126 4.50531L10.6227 10.0916C10.7507 10.3512 10.6313 10.6611 10.3668 10.7867C10.1022 10.9123 9.78655 10.7951 9.65856 10.5355C9.65003 10.5271 9.65003 10.5187 9.64149 10.502L9.00156 9.06979H6.27972L5.63979 10.502C5.52033 10.7616 5.20464 10.8788 4.9316 10.7616C4.66709 10.6443 4.54764 10.3428 4.65856 10.0832L7.15003 4.49693C7.23535 4.3043 7.4316 4.18705 7.64491 4.18705ZM8.54081 8.02289L7.64491 6.01284L6.749 8.02289H8.54081ZM1.05788 8.79341C0.989618 8.50866 0.708049 8.33278 0.417946 8.39978C0.136376 8.4584 -0.0428047 8.72641 0.00838986 9.00279C0.8531 13.0648 4.89747 15.6862 9.03569 14.8487C12.0391 14.2457 14.377 11.9425 14.9913 9.00279C15.0511 8.71804 14.8633 8.44165 14.5732 8.38303C14.4708 8.36628 14.3685 8.37465 14.2746 8.40815L12.4231 9.1033C12.15 9.21217 12.022 9.52206 12.133 9.79006C12.2439 10.0497 12.534 10.1753 12.807 10.0832L13.6603 9.76494C12.3889 13.1066 8.59201 14.7984 5.18757 13.5505C3.07153 12.7633 1.5101 10.971 1.05788 8.79341Z" fill="currentColor"/>
</g>
</g>
<defs>
<clipPath id="clip0_356_162">
<rect width="15" height="15" fill="white"/>
</clipPath>
<clipPath id="clip1_356_162">
<rect width="15" height="15" fill="white"/>
</clipPath>
</defs>
</svg>
